<svg width="32" height="32" viewBox="0 0 32 32" fill="none" xmlns="http://www.w3.org/2000/svg">
  <rect width="32" height="32" rx="8" fill="#3B82F6"/>
  <path d="M16 8C11.6 8 8 11.6 8 16C8 20.4 11.6 24 16 24C20.4 24 24 20.4 24 16C24 11.6 20.4 8 16 8ZM16 22C12.7 22 10 19.3 10 16C10 12.7 12.7 10 16 10C19.3 10 22 12.7 22 16C22 19.3 19.3 22 16 22Z" fill="white"/>
  <path d="M16 12C14.9 12 14 12.9 14 14C14 15.1 14.9 16 16 16C17.1 16 18 15.1 18 14C18 12.9 17.1 12 16 12ZM16 18C13.8 18 12 19.8 12 22H20C20 19.8 18.2 18 16 18Z" fill="white"/>
  <path d="M21 11H23V13H21V11Z" fill="white"/>
  <path d="M21 15H23V17H21V15Z" fill="white"/>
  <path d="M21 19H23V21H21V19Z" fill="white"/>
</svg>